<svg width="32" height="32" viewBox="0 0 32 32" fill="none" xmlns="http://www.w3.org/2000/svg">
<path opacity="0.4" d="M22.704 0H9.296C3.472 0 0 3.472 0 9.296V22.688C0 28.528 3.472 32 9.296 32H22.688C28.512 32 31.984 28.528 31.984 22.704V9.296C32 3.472 28.528 0 22.704 0Z" fill="#3634A8"/>
<path d="M8.52788 21.1808C8.27188 21.1808 8.01588 21.1008 7.79188 20.9248C7.66686 20.8292 7.56189 20.7099 7.48297 20.5737C7.40405 20.4376 7.35272 20.2872 7.33192 20.1312C7.31112 19.9752 7.32126 19.8166 7.36174 19.6645C7.40223 19.5124 7.47228 19.3698 7.56788 19.2448L11.3759 14.3008C11.8399 13.7088 12.4959 13.3248 13.2479 13.2288C13.9839 13.1328 14.7359 13.3408 15.3279 13.8048L18.2559 16.1088C18.3679 16.2048 18.4799 16.2048 18.5599 16.1888C18.6239 16.1888 18.7359 16.1568 18.8319 16.0288L22.5279 11.2608C22.6235 11.1354 22.7431 11.0303 22.8799 10.9518C23.0166 10.8732 23.1676 10.8228 23.3241 10.8034C23.4806 10.784 23.6394 10.7961 23.7912 10.8389C23.9429 10.8818 24.0846 10.9545 24.2079 11.0528C24.7359 11.4528 24.8319 12.2048 24.4159 12.7328L20.7199 17.5008C20.2559 18.0928 19.5999 18.4768 18.8479 18.5568C18.0959 18.6528 17.3599 18.4448 16.7679 17.9808L13.8399 15.6768C13.7989 15.6408 13.7501 15.6149 13.6973 15.601C13.6446 15.5871 13.5893 15.5857 13.5359 15.5968C13.4719 15.5968 13.3599 15.6288 13.2639 15.7568L9.45588 20.7008C9.24788 21.0208 8.89588 21.1808 8.52788 21.1808Z" fill="#3634A8"/>
</svg>
