<svg width="33" height="32" viewBox="0 0 33 32" fill="none" xmlns="http://www.w3.org/2000/svg">
<path opacity="0.4" d="M13.1631 1.03739L1.86394 10.0865C0.592178 11.0974 -0.223057 13.2333 0.054123 14.8312L2.22265 27.8097C2.61396 30.125 4.8314 32 7.17927 32H25.4405C27.7721 32 30.0058 30.1087 30.3972 27.8097L32.5657 14.8312C32.8265 13.2333 32.0113 11.0974 30.7559 10.0865L19.4567 1.0537C17.7121 -0.348504 14.8914 -0.348504 13.1631 1.03739Z" fill="#3634A8"/>
<path d="M16.3099 21.7119C17.391 21.7119 18.4278 21.2825 19.1922 20.518C19.9567 19.7536 20.3861 18.7168 20.3861 17.6357C20.3861 16.5547 19.9567 15.5179 19.1922 14.7535C18.4278 13.989 17.391 13.5596 16.3099 13.5596C15.2289 13.5596 14.1921 13.989 13.4276 14.7535C12.6632 15.5179 12.2338 16.5547 12.2338 17.6357C12.2338 18.7168 12.6632 19.7536 13.4276 20.518C14.1921 21.2825 15.2289 21.7119 16.3099 21.7119Z" fill="#3634A8"/>
</svg>
