<svg width="34" height="32" viewBox="0 0 34 32" fill="none" xmlns="http://www.w3.org/2000/svg">
<path opacity="0.4" d="M0 17.4917V14.5083C0 12.7454 1.44085 11.2876 3.22071 11.2876C6.28887 11.2876 7.54325 9.11784 6.0007 6.45652C5.11924 4.93091 5.64472 2.94763 7.18728 2.06617L10.1198 0.388013C11.459 -0.408689 13.188 0.0659422 13.9847 1.40508L14.1711 1.72715C15.6967 4.38848 18.2055 4.38848 19.7481 1.72715L19.9345 1.40508C20.7312 0.0659422 22.4602 -0.408689 23.7994 0.388013L26.7319 2.06617C28.2745 2.94763 28.8 4.93091 27.9185 6.45652C26.3759 9.11784 27.6303 11.2876 30.6985 11.2876C32.4614 11.2876 33.9192 12.7284 33.9192 14.5083V17.4917C33.9192 19.2546 32.4784 20.7124 30.6985 20.7124C27.6303 20.7124 26.3759 22.8822 27.9185 25.5435C28.8 27.086 28.2745 29.0524 26.7319 29.9338L23.7994 31.612C22.4602 32.4087 20.7312 31.9341 19.9345 30.5949L19.7481 30.2728C18.2225 27.6115 15.7137 27.6115 14.1711 30.2728L13.9847 30.5949C13.188 31.9341 11.459 32.4087 10.1198 31.612L7.18728 29.9338C6.44838 29.5084 5.90845 28.8072 5.68599 27.9841C5.46353 27.161 5.57671 26.2832 6.0007 25.5435C7.54325 22.8822 6.28887 20.7124 3.22071 20.7124C1.44085 20.7124 0 19.2546 0 17.4917Z" fill="#3634A8"/>
<path d="M16.951 21.5075C18.4121 21.5075 19.8134 20.9271 20.8465 19.8939C21.8797 18.8607 22.4601 17.4595 22.4601 15.9984C22.4601 14.5373 21.8797 13.136 20.8465 12.1028C19.8134 11.0697 18.4121 10.4893 16.951 10.4893C15.4899 10.4893 14.0886 11.0697 13.0555 12.1028C12.0223 13.136 11.4419 14.5373 11.4419 15.9984C11.4419 17.4595 12.0223 18.8607 13.0555 19.8939C14.0886 20.9271 15.4899 21.5075 16.951 21.5075Z" fill="#3634A8"/>
</svg>
