<svg width="32" height="32" viewBox="0 0 32 32" fill="none" xmlns="http://www.w3.org/2000/svg">
<path opacity="0.4" d="M26.3511 23.7272L26.9751 28.783C27.1351 30.111 25.7112 31.039 24.5752 30.351L17.8714 26.3671C17.1355 26.3671 16.4155 26.3191 15.7115 26.2231C16.9242 24.8173 17.5939 23.0239 17.5994 21.1673C17.5994 16.6234 13.6636 12.9436 8.79973 12.9436C6.94379 12.9436 5.23185 13.4716 3.80789 14.3995C3.7599 13.9995 3.7439 13.5995 3.7439 13.1836C3.7439 5.9038 10.0637 0 17.8714 0C25.6792 0 31.999 5.9038 31.999 13.1836C31.999 17.5034 29.775 21.3273 26.3511 23.7272Z" fill="#3634A8"/>
<path d="M17.5995 21.1671C17.5995 23.071 16.8956 24.831 15.7116 26.2229C14.1277 28.1429 11.6157 29.3748 8.79983 29.3748L4.62397 31.8547C3.91999 32.2867 3.02402 31.6947 3.12002 30.8788L3.52001 27.7269C1.37608 26.2389 0.00012207 23.855 0.00012207 21.1671C0.00012207 18.3512 1.50407 15.8713 3.808 14.3993C5.23195 13.4713 6.94389 12.9434 8.79983 12.9434C13.6637 12.9434 17.5995 16.6232 17.5995 21.1671Z" fill="#3634A8"/>
</svg>
