<svg width="28" height="32" viewBox="0 0 28 32" fill="none" xmlns="http://www.w3.org/2000/svg">
<path opacity="0.4" d="M20.7221 2.63672H7.15273C3.20033 2.63672 0 5.85305 0 9.78945V24.847C0 28.7834 3.21633 31.9997 7.15273 31.9997H20.7061C24.6585 31.9997 27.8589 28.7834 27.8589 24.847V9.78945C27.8749 5.83705 24.6585 2.63672 20.7221 2.63672Z" fill="#3634A8"/>
<path d="M17.6978 0H10.177C8.51285 0 7.15271 1.34414 7.15271 3.00831V4.51246C7.15271 6.17663 8.49685 7.52077 10.161 7.52077H17.6978C19.362 7.52077 20.7061 6.17663 20.7061 4.51246V3.00831C20.7221 1.34414 19.362 0 17.6978 0ZM12.0332 23.9225C11.7292 23.9225 11.4251 23.8104 11.1851 23.5704L8.78488 21.1702C8.56169 20.9443 8.43652 20.6396 8.43652 20.3221C8.43652 20.0046 8.56169 19.6998 8.78488 19.474C9.24892 19.01 10.017 19.01 10.4811 19.474L12.0332 21.0262L17.5858 15.4736C18.0498 15.0095 18.8179 15.0095 19.282 15.4736C19.746 15.9376 19.746 16.7057 19.282 17.1698L12.8813 23.5704C12.6573 23.8104 12.3372 23.9225 12.0332 23.9225Z" fill="#3634A8"/>
</svg>
